<?xml version="1.0" encoding="UTF-8" standalone="no"?>
<!-- Created with Inkscape (http://www.inkscape.org/) -->

<svg
   width="431.27084mm"
   height="100.54168mm"
   viewBox="0 0 431.27084 100.54168"
   version="1.1"
   id="svg5"
   xml:space="preserve"
   sodipodi:docname="New document 1.2023_11_08_19_23_40.0.svg"
   inkscape:export-filename="OneDrive\Desktop\jwam.png"
   inkscape:export-xdpi="96"
   inkscape:export-ydpi="96"
   inkscape:version="1.2.2 (732a01da63, 2022-12-09)"
   xmlns:inkscape="http://www.inkscape.org/namespaces/inkscape"
   xmlns:sodipodi="http://sodipodi.sourceforge.net/DTD/sodipodi-0.dtd"
   xmlns="http://www.w3.org/2000/svg"
   xmlns:svg="http://www.w3.org/2000/svg"><sodipodi:namedview
     id="namedview7"
     pagecolor="#ffffff"
     bordercolor="#000000"
     borderopacity="0.25"
     inkscape:showpageshadow="2"
     inkscape:pageopacity="0.0"
     inkscape:pagecheckerboard="0"
     inkscape:deskcolor="#d1d1d1"
     inkscape:document-units="mm"
     showgrid="true"
     inkscape:zoom="0.70710678"
     inkscape:cx="187.3833"
     inkscape:cy="219.2031"
     inkscape:window-width="1366"
     inkscape:window-height="705"
     inkscape:window-x="-8"
     inkscape:window-y="-8"
     inkscape:window-maximized="1"
     inkscape:current-layer="g1217" /><defs
     id="defs2" /><g
     inkscape:label="Layer 1"
     inkscape:groupmode="layer"
     id="layer1"
     transform="translate(-2.263434e-5)"><g
       id="g2065"
       inkscape:label="M"
       inkscape:export-filename="OneDrive\Desktop\g2065.svg"
       inkscape:export-xdpi="96"
       inkscape:export-ydpi="96"><path
         id="path466"
         style="opacity:0.5;fill:#e9d643;fill-opacity:1;stroke-width:0.288485"
         d="m 330.72917,-2.7000003e-6 h 10e-6 V 100.54167 h 100.54167 z"
         sodipodi:nodetypes="ccccc" /><path
         id="path464"
         style="opacity:0.5;fill:#4c5db0;fill-opacity:1;stroke-width:0.288485"
         d="m 431.27085,-2.7000003e-6 h -10e-6 V 100.54167 H 330.72917 Z"
         sodipodi:nodetypes="ccccc" /><path
         id="path1514"
         style="opacity:0.5;fill:#e9d643;fill-opacity:1;stroke-width:0.288485"
         d="m 330.72917,-2.7000003e-6 h 10e-6 V 100.54167 h 100.54167 z"
         sodipodi:nodetypes="ccccc" /><path
         id="path1518"
         style="opacity:0.5;fill:#4c5db0;fill-opacity:1;stroke-width:0.288485"
         d="m 431.27085,-2.7000003e-6 h -10e-6 V 100.54167 H 330.72917 Z"
         sodipodi:nodetypes="ccccc" /><path
         id="path1526"
         style="opacity:0.5;fill:#e9d643;fill-opacity:1;stroke-width:0.288485"
         d="m 330.72917,-2.7000003e-6 h 10e-6 V 100.54167 h 100.54167 z"
         sodipodi:nodetypes="ccccc" /><path
         id="path1530"
         style="opacity:0.5;fill:#4c5db0;fill-opacity:1;stroke-width:0.288485"
         d="m 431.27085,-2.7000003e-6 h -10e-6 V 100.54167 H 330.72917 Z"
         sodipodi:nodetypes="ccccc" /><path
         id="path1538"
         style="opacity:0.5;fill:#e9d643;fill-opacity:1;stroke-width:0.288485"
         d="m 330.72917,-2.7000003e-6 h 10e-6 V 100.54167 h 100.54167 z"
         sodipodi:nodetypes="ccccc" /><path
         id="path1542"
         style="opacity:0.5;fill:#4c5db0;fill-opacity:1;stroke-width:0.288485"
         d="m 431.27085,-2.7000003e-6 h -10e-6 V 100.54167 H 330.72917 Z"
         sodipodi:nodetypes="ccccc" /><path
         id="path1550"
         style="opacity:0.5;fill:#e9d643;fill-opacity:1;stroke-width:0.288485"
         d="m 330.72917,-2.7000003e-6 h 10e-6 V 100.54167 h 100.54167 z"
         sodipodi:nodetypes="ccccc" /><path
         id="path1554"
         style="opacity:0.5;fill:#4c5db0;fill-opacity:1;stroke-width:0.288485"
         d="m 431.27085,-2.7000003e-6 h -10e-6 V 100.54167 H 330.72917 Z"
         sodipodi:nodetypes="ccccc" /><path
         id="path1562"
         style="opacity:0.5;fill:#e9d643;fill-opacity:1;stroke-width:0.288485"
         d="m 330.72917,-2.7000003e-6 h 10e-6 V 100.54167 h 100.54167 z"
         sodipodi:nodetypes="ccccc" /><path
         id="path1566"
         style="opacity:0.5;fill:#4c5db0;fill-opacity:1;stroke-width:0.288485"
         d="m 431.27085,-2.7000003e-6 h -10e-6 V 100.54167 H 330.72917 Z"
         sodipodi:nodetypes="ccccc" /><path
         id="path1574"
         style="opacity:0.5;fill:#e9d643;fill-opacity:1;stroke-width:0.288485"
         d="m 330.72917,-2.7000003e-6 h 10e-6 V 100.54167 h 100.54167 z"
         sodipodi:nodetypes="ccccc" /><path
         id="path1578"
         style="opacity:0.5;fill:#4c5db0;fill-opacity:1;stroke-width:0.288485"
         d="m 431.27085,-2.7000003e-6 h -10e-6 V 100.54167 H 330.72917 Z"
         sodipodi:nodetypes="ccccc" /><path
         id="path1586"
         style="opacity:0.5;fill:#e9d643;fill-opacity:1;stroke-width:0.288485"
         d="m 330.72917,-2.7000003e-6 h 10e-6 V 100.54167 h 100.54167 z"
         sodipodi:nodetypes="ccccc" /><path
         id="path1590"
         style="opacity:0.5;fill:#4c5db0;fill-opacity:1;stroke-width:0.288485"
         d="m 431.27085,-2.7000003e-6 h -10e-6 V 100.54167 H 330.72917 Z"
         sodipodi:nodetypes="ccccc" /><path
         id="path1598"
         style="opacity:0.5;fill:#e9d643;fill-opacity:1;stroke-width:0.288485"
         d="m 330.72917,-2.7000003e-6 h 10e-6 V 100.54167 h 100.54167 z"
         sodipodi:nodetypes="ccccc" /><path
         id="path1602"
         style="opacity:0.5;fill:#4c5db0;fill-opacity:1;stroke-width:0.288485"
         d="m 431.27085,-2.7000003e-6 h -10e-6 V 100.54167 H 330.72917 Z"
         sodipodi:nodetypes="ccccc" /><path
         id="path1610"
         style="opacity:0.5;fill:#e9d643;fill-opacity:1;stroke-width:0.288485"
         d="m 330.72917,-2.7000003e-6 h 10e-6 V 100.54167 h 100.54167 z"
         sodipodi:nodetypes="ccccc" /><path
         id="path1614"
         style="opacity:0.5;fill:#4c5db0;fill-opacity:1;stroke-width:0.288485"
         d="m 431.27085,-2.7000003e-6 h -10e-6 V 100.54167 H 330.72917 Z"
         sodipodi:nodetypes="ccccc" /><path
         id="path1622"
         style="opacity:0.5;fill:#e9d643;fill-opacity:1;stroke-width:0.288485"
         d="m 330.72917,-2.7000003e-6 h 10e-6 V 100.54167 h 100.54167 z"
         sodipodi:nodetypes="ccccc" /><path
         id="path1626"
         style="opacity:0.5;fill:#4c5db0;fill-opacity:1;stroke-width:0.288485"
         d="m 431.27085,-2.7000003e-6 h -10e-6 V 100.54167 H 330.72917 Z"
         sodipodi:nodetypes="ccccc" /><path
         id="path1634"
         style="opacity:0.5;fill:#e9d643;fill-opacity:1;stroke-width:0.288485"
         d="m 330.72917,-2.7000003e-6 h 10e-6 V 100.54167 h 100.54167 z"
         sodipodi:nodetypes="ccccc" /><path
         id="path1638"
         style="opacity:0.5;fill:#4c5db0;fill-opacity:1;stroke-width:0.288485"
         d="m 431.27085,-2.7000003e-6 h -10e-6 V 100.54167 H 330.72917 Z"
         sodipodi:nodetypes="ccccc" /><path
         id="path1646"
         style="opacity:0.5;fill:#e9d643;fill-opacity:1;stroke-width:0.288485"
         d="m 330.72917,-2.7000003e-6 h 10e-6 V 100.54167 h 100.54167 z"
         sodipodi:nodetypes="ccccc" /><path
         id="path1650"
         style="opacity:0.5;fill:#4c5db0;fill-opacity:1;stroke-width:0.288485"
         d="m 431.27085,-2.7000003e-6 h -10e-6 V 100.54167 H 330.72917 Z"
         sodipodi:nodetypes="ccccc" /><path
         id="path1658"
         style="opacity:0.5;fill:#e9d643;fill-opacity:1;stroke-width:0.288485"
         d="m 330.72917,-2.7000003e-6 h 10e-6 V 100.54167 h 100.54167 z"
         sodipodi:nodetypes="ccccc" /><path
         id="path1662"
         style="opacity:0.5;fill:#4c5db0;fill-opacity:1;stroke-width:0.288485"
         d="m 431.27085,-2.7000003e-6 h -10e-6 V 100.54167 H 330.72917 Z"
         sodipodi:nodetypes="ccccc" /><path
         id="path1670"
         style="opacity:0.5;fill:#e9d643;fill-opacity:1;stroke-width:0.288485"
         d="m 330.72917,-2.7000003e-6 h 10e-6 V 100.54167 h 100.54167 z"
         sodipodi:nodetypes="ccccc" /><path
         id="path1674"
         style="opacity:0.5;fill:#4c5db0;fill-opacity:1;stroke-width:0.288485"
         d="m 431.27085,-2.7000003e-6 h -10e-6 V 100.54167 H 330.72917 Z"
         sodipodi:nodetypes="ccccc" /><path
         id="path1682"
         style="opacity:0.5;fill:#e9d643;fill-opacity:1;stroke-width:0.288485"
         d="m 330.72917,-2.7000003e-6 h 10e-6 V 100.54167 h 100.54167 z"
         sodipodi:nodetypes="ccccc" /><path
         id="path1686"
         style="opacity:0.5;fill:#4c5db0;fill-opacity:1;stroke-width:0.288485"
         d="m 431.27085,-2.7000003e-6 h -10e-6 V 100.54167 H 330.72917 Z"
         sodipodi:nodetypes="ccccc" /><path
         id="path1694"
         style="opacity:0.5;fill:#e9d643;fill-opacity:1;stroke-width:0.288485"
         d="m 330.72917,-2.7000003e-6 h 10e-6 V 100.54167 h 100.54167 z"
         sodipodi:nodetypes="ccccc" /><path
         id="path1698"
         style="opacity:0.5;fill:#4c5db0;fill-opacity:1;stroke-width:0.288485"
         d="m 431.27085,-2.7000003e-6 h -10e-6 V 100.54167 H 330.72917 Z"
         sodipodi:nodetypes="ccccc" /><path
         id="path1706"
         style="opacity:0.5;fill:#e9d643;fill-opacity:1;stroke-width:0.288485"
         d="m 330.72917,-2.7000003e-6 h 10e-6 V 100.54167 h 100.54167 z"
         sodipodi:nodetypes="ccccc" /><path
         id="path1710"
         style="opacity:0.5;fill:#4c5db0;fill-opacity:1;stroke-width:0.288485"
         d="m 431.27085,-2.7000003e-6 h -10e-6 V 100.54167 H 330.72917 Z"
         sodipodi:nodetypes="ccccc" /></g><g
       id="g2027"
       inkscape:label="A"><path
         id="path462"
         style="opacity:0.5;fill:#db4857;fill-opacity:1;stroke-width:0.288485"
         d="M 222.25,100.54167 H 322.79167 L 272.52084,5.9999973e-7 v 0 z"
         sodipodi:nodetypes="ccccc" /><path
         id="path1512"
         style="opacity:0.5;fill:#db4857;fill-opacity:1;stroke-width:0.288485"
         d="M 222.25,100.54167 H 322.79167 L 272.52084,5.9999973e-7 v 0 z"
         sodipodi:nodetypes="ccccc" /><path
         id="path1524"
         style="opacity:0.5;fill:#db4857;fill-opacity:1;stroke-width:0.288485"
         d="M 222.25,100.54167 H 322.79167 L 272.52084,5.9999973e-7 v 0 z"
         sodipodi:nodetypes="ccccc" /><path
         id="path1536"
         style="opacity:0.5;fill:#db4857;fill-opacity:1;stroke-width:0.288485"
         d="M 222.25,100.54167 H 322.79167 L 272.52084,5.9999973e-7 v 0 z"
         sodipodi:nodetypes="ccccc" /><path
         id="path1548"
         style="opacity:0.5;fill:#db4857;fill-opacity:1;stroke-width:0.288485"
         d="M 222.25,100.54167 H 322.79167 L 272.52084,5.9999973e-7 v 0 z"
         sodipodi:nodetypes="ccccc" /><path
         id="path1560"
         style="opacity:0.5;fill:#db4857;fill-opacity:1;stroke-width:0.288485"
         d="M 222.25,100.54167 H 322.79167 L 272.52084,5.9999973e-7 v 0 z"
         sodipodi:nodetypes="ccccc" /><path
         id="path1572"
         style="opacity:0.5;fill:#db4857;fill-opacity:1;stroke-width:0.288485"
         d="M 222.25,100.54167 H 322.79167 L 272.52084,5.9999973e-7 v 0 z"
         sodipodi:nodetypes="ccccc" /><path
         id="path1584"
         style="opacity:0.5;fill:#db4857;fill-opacity:1;stroke-width:0.288485"
         d="M 222.25,100.54167 H 322.79167 L 272.52084,5.9999973e-7 v 0 z"
         sodipodi:nodetypes="ccccc" /><path
         id="path1596"
         style="opacity:0.5;fill:#db4857;fill-opacity:1;stroke-width:0.288485"
         d="M 222.25,100.54167 H 322.79167 L 272.52084,5.9999973e-7 v 0 z"
         sodipodi:nodetypes="ccccc" /><path
         id="path1608"
         style="opacity:0.5;fill:#db4857;fill-opacity:1;stroke-width:0.288485"
         d="M 222.25,100.54167 H 322.79167 L 272.52084,5.9999973e-7 v 0 z"
         sodipodi:nodetypes="ccccc" /><path
         id="path1620"
         style="opacity:0.5;fill:#db4857;fill-opacity:1;stroke-width:0.288485"
         d="M 222.25,100.54167 H 322.79167 L 272.52084,5.9999973e-7 v 0 z"
         sodipodi:nodetypes="ccccc" /><path
         id="path1632"
         style="opacity:0.5;fill:#db4857;fill-opacity:1;stroke-width:0.288485"
         d="M 222.25,100.54167 H 322.79167 L 272.52084,5.9999973e-7 v 0 z"
         sodipodi:nodetypes="ccccc" /><path
         id="path1644"
         style="opacity:0.5;fill:#db4857;fill-opacity:1;stroke-width:0.288485"
         d="M 222.25,100.54167 H 322.79167 L 272.52084,5.9999973e-7 v 0 z"
         sodipodi:nodetypes="ccccc" /><path
         id="path1656"
         style="opacity:0.5;fill:#db4857;fill-opacity:1;stroke-width:0.288485"
         d="M 222.25,100.54167 H 322.79167 L 272.52084,5.9999973e-7 v 0 z"
         sodipodi:nodetypes="ccccc" /><path
         id="path1668"
         style="opacity:0.5;fill:#db4857;fill-opacity:1;stroke-width:0.288485"
         d="M 222.25,100.54167 H 322.79167 L 272.52084,5.9999973e-7 v 0 z"
         sodipodi:nodetypes="ccccc" /><path
         id="path1680"
         style="opacity:0.5;fill:#db4857;fill-opacity:1;stroke-width:0.288485"
         d="M 222.25,100.54167 H 322.79167 L 272.52084,5.9999973e-7 v 0 z"
         sodipodi:nodetypes="ccccc" /><path
         id="path1692"
         style="opacity:0.5;fill:#db4857;fill-opacity:1;stroke-width:0.288485"
         d="M 222.25,100.54167 H 322.79167 L 272.52084,5.9999973e-7 v 0 z"
         sodipodi:nodetypes="ccccc" /><path
         id="path1704"
         style="opacity:0.5;fill:#db4857;fill-opacity:1;stroke-width:0.288485"
         d="M 222.25,100.54167 H 322.79167 L 272.52084,5.9999973e-7 v 0 z"
         sodipodi:nodetypes="ccccc" /></g><g
       id="g2007"
       inkscape:label="W"><path
         id="path460"
         style="opacity:0.5;fill:#4c5db0;fill-opacity:1;stroke-width:0.288485"
         d="M 153.45833,0 H 254 l -50.27083,100.54167 v 0 z"
         sodipodi:nodetypes="ccccc" /><path
         id="rect356"
         style="opacity:0.5;fill:#e9d643;fill-opacity:1;stroke-width:0.288485"
         d="M 108.47916,0 H 209.02083 L 158.75,100.54167 v 0 z"
         sodipodi:nodetypes="ccccc" /><path
         id="path1510"
         style="opacity:0.5;fill:#4c5db0;fill-opacity:1;stroke-width:0.288485"
         d="M 153.45833,0 H 254 l -50.27083,100.54167 v 0 z"
         sodipodi:nodetypes="ccccc" /><path
         id="path1516"
         style="opacity:0.5;fill:#e9d643;fill-opacity:1;stroke-width:0.288485"
         d="M 108.47916,0 H 209.02083 L 158.75,100.54167 v 0 z"
         sodipodi:nodetypes="ccccc" /><path
         id="path1522"
         style="opacity:0.5;fill:#4c5db0;fill-opacity:1;stroke-width:0.288485"
         d="M 153.45833,0 H 254 l -50.27083,100.54167 v 0 z"
         sodipodi:nodetypes="ccccc" /><path
         id="path1528"
         style="opacity:0.5;fill:#e9d643;fill-opacity:1;stroke-width:0.288485"
         d="M 108.47916,0 H 209.02083 L 158.75,100.54167 v 0 z"
         sodipodi:nodetypes="ccccc" /><path
         id="path1534"
         style="opacity:0.5;fill:#4c5db0;fill-opacity:1;stroke-width:0.288485"
         d="M 153.45833,0 H 254 l -50.27083,100.54167 v 0 z"
         sodipodi:nodetypes="ccccc" /><path
         id="path1540"
         style="opacity:0.5;fill:#e9d643;fill-opacity:1;stroke-width:0.288485"
         d="M 108.47916,0 H 209.02083 L 158.75,100.54167 v 0 z"
         sodipodi:nodetypes="ccccc" /><path
         id="path1546"
         style="opacity:0.5;fill:#4c5db0;fill-opacity:1;stroke-width:0.288485"
         d="M 153.45833,0 H 254 l -50.27083,100.54167 v 0 z"
         sodipodi:nodetypes="ccccc" /><path
         id="path1552"
         style="opacity:0.5;fill:#e9d643;fill-opacity:1;stroke-width:0.288485"
         d="M 108.47916,0 H 209.02083 L 158.75,100.54167 v 0 z"
         sodipodi:nodetypes="ccccc" /><path
         id="path1558"
         style="opacity:0.5;fill:#4c5db0;fill-opacity:1;stroke-width:0.288485"
         d="M 153.45833,0 H 254 l -50.27083,100.54167 v 0 z"
         sodipodi:nodetypes="ccccc" /><path
         id="path1564"
         style="opacity:0.5;fill:#e9d643;fill-opacity:1;stroke-width:0.288485"
         d="M 108.47916,0 H 209.02083 L 158.75,100.54167 v 0 z"
         sodipodi:nodetypes="ccccc" /><path
         id="path1570"
         style="opacity:0.5;fill:#4c5db0;fill-opacity:1;stroke-width:0.288485"
         d="M 153.45833,0 H 254 l -50.27083,100.54167 v 0 z"
         sodipodi:nodetypes="ccccc" /><path
         id="path1576"
         style="opacity:0.5;fill:#e9d643;fill-opacity:1;stroke-width:0.288485"
         d="M 108.47916,0 H 209.02083 L 158.75,100.54167 v 0 z"
         sodipodi:nodetypes="ccccc" /><path
         id="path1582"
         style="opacity:0.5;fill:#4c5db0;fill-opacity:1;stroke-width:0.288485"
         d="M 153.45833,0 H 254 l -50.27083,100.54167 v 0 z"
         sodipodi:nodetypes="ccccc" /><path
         id="path1588"
         style="opacity:0.5;fill:#e9d643;fill-opacity:1;stroke-width:0.288485"
         d="M 108.47916,0 H 209.02083 L 158.75,100.54167 v 0 z"
         sodipodi:nodetypes="ccccc" /><path
         id="path1594"
         style="opacity:0.5;fill:#4c5db0;fill-opacity:1;stroke-width:0.288485"
         d="M 153.45833,0 H 254 l -50.27083,100.54167 v 0 z"
         sodipodi:nodetypes="ccccc" /><path
         id="path1600"
         style="opacity:0.5;fill:#e9d643;fill-opacity:1;stroke-width:0.288485"
         d="M 108.47916,0 H 209.02083 L 158.75,100.54167 v 0 z"
         sodipodi:nodetypes="ccccc" /><path
         id="path1606"
         style="opacity:0.5;fill:#4c5db0;fill-opacity:1;stroke-width:0.288485"
         d="M 153.45833,0 H 254 l -50.27083,100.54167 v 0 z"
         sodipodi:nodetypes="ccccc" /><path
         id="path1612"
         style="opacity:0.5;fill:#e9d643;fill-opacity:1;stroke-width:0.288485"
         d="M 108.47916,0 H 209.02083 L 158.75,100.54167 v 0 z"
         sodipodi:nodetypes="ccccc" /><path
         id="path1618"
         style="opacity:0.5;fill:#4c5db0;fill-opacity:1;stroke-width:0.288485"
         d="M 153.45833,0 H 254 l -50.27083,100.54167 v 0 z"
         sodipodi:nodetypes="ccccc" /><path
         id="path1624"
         style="opacity:0.5;fill:#e9d643;fill-opacity:1;stroke-width:0.288485"
         d="M 108.47916,0 H 209.02083 L 158.75,100.54167 v 0 z"
         sodipodi:nodetypes="ccccc" /><path
         id="path1630"
         style="opacity:0.5;fill:#4c5db0;fill-opacity:1;stroke-width:0.288485"
         d="M 153.45833,0 H 254 l -50.27083,100.54167 v 0 z"
         sodipodi:nodetypes="ccccc" /><path
         id="path1636"
         style="opacity:0.5;fill:#e9d643;fill-opacity:1;stroke-width:0.288485"
         d="M 108.47916,0 H 209.02083 L 158.75,100.54167 v 0 z"
         sodipodi:nodetypes="ccccc" /><path
         id="path1642"
         style="opacity:0.5;fill:#4c5db0;fill-opacity:1;stroke-width:0.288485"
         d="M 153.45833,0 H 254 l -50.27083,100.54167 v 0 z"
         sodipodi:nodetypes="ccccc" /><path
         id="path1648"
         style="opacity:0.5;fill:#e9d643;fill-opacity:1;stroke-width:0.288485"
         d="M 108.47916,0 H 209.02083 L 158.75,100.54167 v 0 z"
         sodipodi:nodetypes="ccccc" /><path
         id="path1654"
         style="opacity:0.5;fill:#4c5db0;fill-opacity:1;stroke-width:0.288485"
         d="M 153.45833,0 H 254 l -50.27083,100.54167 v 0 z"
         sodipodi:nodetypes="ccccc" /><path
         id="path1660"
         style="opacity:0.5;fill:#e9d643;fill-opacity:1;stroke-width:0.288485"
         d="M 108.47916,0 H 209.02083 L 158.75,100.54167 v 0 z"
         sodipodi:nodetypes="ccccc" /><path
         id="path1666"
         style="opacity:0.5;fill:#4c5db0;fill-opacity:1;stroke-width:0.288485"
         d="M 153.45833,0 H 254 l -50.27083,100.54167 v 0 z"
         sodipodi:nodetypes="ccccc" /><path
         id="path1672"
         style="opacity:0.5;fill:#e9d643;fill-opacity:1;stroke-width:0.288485"
         d="M 108.47916,0 H 209.02083 L 158.75,100.54167 v 0 z"
         sodipodi:nodetypes="ccccc" /><path
         id="path1678"
         style="opacity:0.5;fill:#4c5db0;fill-opacity:1;stroke-width:0.288485"
         d="M 153.45833,0 H 254 l -50.27083,100.54167 v 0 z"
         sodipodi:nodetypes="ccccc" /><path
         id="path1684"
         style="opacity:0.5;fill:#e9d643;fill-opacity:1;stroke-width:0.288485"
         d="M 108.47916,0 H 209.02083 L 158.75,100.54167 v 0 z"
         sodipodi:nodetypes="ccccc" /><path
         id="path1690"
         style="opacity:0.5;fill:#4c5db0;fill-opacity:1;stroke-width:0.288485"
         d="M 153.45833,0 H 254 l -50.27083,100.54167 v 0 z"
         sodipodi:nodetypes="ccccc" /><path
         id="path1696"
         style="opacity:0.5;fill:#e9d643;fill-opacity:1;stroke-width:0.288485"
         d="M 108.47916,0 H 209.02083 L 158.75,100.54167 v 0 z"
         sodipodi:nodetypes="ccccc" /><path
         id="path1702"
         style="opacity:0.5;fill:#4c5db0;fill-opacity:1;stroke-width:0.288485"
         d="M 153.45833,0 H 254 l -50.27083,100.54167 v 0 z"
         sodipodi:nodetypes="ccccc" /><path
         id="path1708"
         style="opacity:0.5;fill:#e9d643;fill-opacity:1;stroke-width:0.288485"
         d="M 108.47916,0 H 209.02083 L 158.75,100.54167 v 0 z"
         sodipodi:nodetypes="ccccc" /></g><g
       id="g1949"
       inkscape:label="J"><path
         id="rect234"
         style="opacity:0.5;fill:#db4857;fill-opacity:1;stroke-width:0.288485"
         d="m 100.54168,0 h -1e-5 V 100.54166 H 1.0166667e-5 Z"
         sodipodi:nodetypes="ccccc" /><path
         id="path1508"
         style="opacity:0.5;fill:#db4857;fill-opacity:1;stroke-width:0.288485"
         d="m 100.54168,0 h -1e-5 V 100.54166 H 1.0166667e-5 Z"
         sodipodi:nodetypes="ccccc" /><path
         id="path1520"
         style="opacity:0.5;fill:#db4857;fill-opacity:1;stroke-width:0.288485"
         d="m 100.54168,0 h -1e-5 V 100.54166 H 1.0166667e-5 Z"
         sodipodi:nodetypes="ccccc" /><path
         id="path1532"
         style="opacity:0.5;fill:#db4857;fill-opacity:1;stroke-width:0.288485"
         d="m 100.54168,0 h -1e-5 V 100.54166 H 1.0166667e-5 Z"
         sodipodi:nodetypes="ccccc" /><path
         id="path1544"
         style="opacity:0.5;fill:#db4857;fill-opacity:1;stroke-width:0.288485"
         d="m 100.54168,0 h -1e-5 V 100.54166 H 1.0166667e-5 Z"
         sodipodi:nodetypes="ccccc" /><path
         id="path1556"
         style="opacity:0.5;fill:#db4857;fill-opacity:1;stroke-width:0.288485"
         d="m 100.54168,0 h -1e-5 V 100.54166 H 1.0166667e-5 Z"
         sodipodi:nodetypes="ccccc" /><path
         id="path1568"
         style="opacity:0.5;fill:#db4857;fill-opacity:1;stroke-width:0.288485"
         d="m 100.54168,0 h -1e-5 V 100.54166 H 1.0166667e-5 Z"
         sodipodi:nodetypes="ccccc" /><path
         id="path1580"
         style="opacity:0.5;fill:#db4857;fill-opacity:1;stroke-width:0.288485"
         d="m 100.54168,0 h -1e-5 V 100.54166 H 1.0166667e-5 Z"
         sodipodi:nodetypes="ccccc" /><path
         id="path1592"
         style="opacity:0.5;fill:#db4857;fill-opacity:1;stroke-width:0.288485"
         d="m 100.54168,0 h -1e-5 V 100.54166 H 1.0166667e-5 Z"
         sodipodi:nodetypes="ccccc" /><path
         id="path1604"
         style="opacity:0.5;fill:#db4857;fill-opacity:1;stroke-width:0.288485"
         d="m 100.54168,0 h -1e-5 V 100.54166 H 1.0166667e-5 Z"
         sodipodi:nodetypes="ccccc" /><path
         id="path1616"
         style="opacity:0.5;fill:#db4857;fill-opacity:1;stroke-width:0.288485"
         d="m 100.54168,0 h -1e-5 V 100.54166 H 1.0166667e-5 Z"
         sodipodi:nodetypes="ccccc" /><path
         id="path1628"
         style="opacity:0.5;fill:#db4857;fill-opacity:1;stroke-width:0.288485"
         d="m 100.54168,0 h -1e-5 V 100.54166 H 1.0166667e-5 Z"
         sodipodi:nodetypes="ccccc" /><path
         id="path1640"
         style="opacity:0.5;fill:#db4857;fill-opacity:1;stroke-width:0.288485"
         d="m 100.54168,0 h -1e-5 V 100.54166 H 1.0166667e-5 Z"
         sodipodi:nodetypes="ccccc" /><path
         id="path1652"
         style="opacity:0.5;fill:#db4857;fill-opacity:1;stroke-width:0.288485"
         d="m 100.54168,0 h -1e-5 V 100.54166 H 1.0166667e-5 Z"
         sodipodi:nodetypes="ccccc" /><path
         id="path1664"
         style="opacity:0.5;fill:#db4857;fill-opacity:1;stroke-width:0.288485"
         d="m 100.54168,0 h -1e-5 V 100.54166 H 1.0166667e-5 Z"
         sodipodi:nodetypes="ccccc" /><path
         id="path1676"
         style="opacity:0.5;fill:#db4857;fill-opacity:1;stroke-width:0.288485"
         d="m 100.54168,0 h -1e-5 V 100.54166 H 1.0166667e-5 Z"
         sodipodi:nodetypes="ccccc" /><path
         id="path1688"
         style="opacity:0.5;fill:#db4857;fill-opacity:1;stroke-width:0.288485"
         d="m 100.54168,0 h -1e-5 V 100.54166 H 1.0166667e-5 Z"
         sodipodi:nodetypes="ccccc" /><path
         id="path1700"
         style="opacity:0.5;fill:#db4857;fill-opacity:1;stroke-width:0.288485"
         d="m 100.54168,0 h -1e-5 V 100.54166 H 1.0166667e-5 Z"
         sodipodi:nodetypes="ccccc" /></g></g></svg>
